<svg width="27" height="27" viewBox="0 0 27 27" fill="none" xmlns="http://www.w3.org/2000/svg">
<path d="M13.5 1C11.0277 1 8.61099 1.7331 6.55538 3.10662C4.49976 4.48013 2.89761 6.43238 1.95151 8.71645C1.00542 11.0005 0.757874 13.5138 1.24019 15.9386C1.7225 18.3634 2.91301 20.5907 4.66117 22.3389C6.40932 24.087 8.63661 25.2775 11.0614 25.7598C13.4861 26.2421 15.9995 25.9946 18.2835 25.0485C20.5676 24.1024 22.5199 22.5003 23.8934 20.4447C25.2669 18.3891 26 15.9723 26 13.5C26.0007 11.8583 25.6779 10.2325 25.05 8.71565C24.422 7.19876 23.5013 5.82049 22.3404 4.65961C21.1796 3.49874 19.8013 2.57797 18.2844 1.95004C16.7675 1.32211 15.1417 0.999282 13.5 1ZM6.33526 21.6114C6.4347 19.7884 7.2337 18.0741 8.56579 16.8257C9.89788 15.5772 11.6603 14.8909 13.4859 14.9097C15.3115 14.9286 17.0594 15.651 18.3655 16.9267C19.6716 18.2023 20.4351 19.9327 20.4969 21.7574C18.5145 23.4424 15.9905 24.3554 13.3889 24.3285C10.7872 24.3017 8.28258 23.3369 6.33526 21.6114ZM9.8702 10.0381C9.8702 9.33711 10.0781 8.65187 10.4675 8.06905C10.8569 7.48623 11.4104 7.03198 12.058 6.76374C12.7056 6.49549 13.4182 6.42526 14.1057 6.56201C14.7932 6.69876 15.4247 7.03635 15.9203 7.532C16.416 8.02764 16.7535 8.65909 16.8902 9.34657C17.027 10.0341 16.9568 10.7467 16.6886 11.3943C16.4203 12.0419 15.9661 12.5954 15.3833 12.9848C14.8004 13.3742 14.1152 13.5821 13.4143 13.5821C12.4754 13.5806 11.5753 13.2073 10.9111 12.5438C10.2469 11.8802 9.87262 10.9805 9.8702 10.0416V10.0381ZM21.6953 20.5699C21.4414 19.0862 20.7942 17.6977 19.8212 16.5492C18.8482 15.4007 17.5849 14.5342 16.1631 14.0399C17.0187 13.4532 17.6641 12.6081 18.0049 11.6281C18.3456 10.6482 18.3637 9.58489 18.0566 8.5939C17.7495 7.60291 17.1332 6.73623 16.2981 6.1207C15.4629 5.50517 14.4527 5.17315 13.4152 5.17315C12.3777 5.17315 11.3675 5.50517 10.5323 6.1207C9.69712 6.73623 9.08089 7.60291 8.77378 8.5939C8.46666 9.58489 8.48479 10.6482 8.82551 11.6281C9.16622 12.6081 9.81164 13.4532 10.6673 14.0399C9.27207 14.5245 8.0289 15.3677 7.06263 16.4847C6.09637 17.6018 5.44102 18.9534 5.16242 20.4039C3.84301 18.8137 3.00589 16.8795 2.74982 14.8291C2.49374 12.7788 2.82939 10.698 3.71716 8.83223C4.60494 6.96642 6.00781 5.39336 7.76029 4.29873C9.51277 3.2041 11.5418 2.63352 13.6079 2.65426C15.674 2.67501 17.6912 3.28626 19.4213 4.41585C21.1515 5.54544 22.5225 7.14625 23.3726 9.02951C24.2227 10.9128 24.5165 12.9999 24.2194 15.0447C23.9222 17.0894 23.0464 19.0066 21.6953 20.5699Z" fill="#ED2024" stroke="#ED2024" stroke-width="0.3"/>
</svg>
