<svg width="21" height="22" viewBox="0 0 21 22" fill="none" xmlns="http://www.w3.org/2000/svg">
<path d="M10.5 0.879883C6.42912 0.879883 3.11719 4.07195 3.11719 7.99551C3.11719 9.32115 3.49818 10.6148 4.21924 11.7372L10.0798 20.8396C10.192 21.0139 10.3898 21.1199 10.6025 21.1199C10.6041 21.1199 10.6057 21.1199 10.6074 21.1199C10.8219 21.1183 11.0201 21.009 11.1303 20.8316L16.8415 11.6411C17.5227 10.5424 17.8828 9.28182 17.8828 7.99551C17.8828 4.07195 14.5709 0.879883 10.5 0.879883ZM15.7855 11.0322L10.5932 19.3879L5.26505 11.1124C4.66487 10.1782 4.33945 9.10041 4.33945 7.99551C4.33945 4.72588 7.1076 2.05791 10.5 2.05791C13.8924 2.05791 16.6564 4.72588 16.6564 7.99551C16.6564 9.06763 16.3525 10.1179 15.7855 11.0322Z" fill="#ED2024" stroke="#ED2024" stroke-width="0.3"/>
<g opacity="0.9">
<path d="M10.5 4.43787C8.46456 4.43787 6.80859 6.0339 6.80859 7.99568C6.80859 9.94493 8.43761 11.5535 10.5 11.5535C12.5878 11.5535 14.1914 9.9235 14.1914 7.99568C14.1914 6.0339 12.5354 4.43787 10.5 4.43787ZM10.5 10.3755C9.13594 10.3755 8.03086 9.30681 8.03086 7.99568C8.03086 6.68783 9.14304 5.6159 10.5 5.6159C11.857 5.6159 12.965 6.68783 12.965 7.99568C12.965 9.28768 11.8857 10.3755 10.5 10.3755Z" fill="#ED2024" stroke="#ED2024" stroke-width="0.2"/>
</g>
</svg>
