<svg width="25" height="22" viewBox="0 0 25 22" fill="none" xmlns="http://www.w3.org/2000/svg">
<path d="M23.9728 4.00553H4.42589L4.13533 0.897665C4.08781 0.389428 3.64417 0 3.11273 0H1.02671C0.459671 0 0 0.441345 0 0.985775C0 1.5302 0.459671 1.97155 1.02671 1.97155H2.17408C2.8011 8.67867 1.18057 -8.65674 3.35493 14.603C3.43873 15.5134 3.95106 16.5013 4.83364 17.1726C3.24239 19.1236 4.6963 22 7.28473 22C9.43309 22 10.9484 19.9427 10.2116 17.9943H15.8309C15.0951 19.9402 16.6071 22 18.7578 22C20.4742 22 21.8706 20.6593 21.8706 19.0114C21.8706 17.3634 20.4742 16.0227 18.7578 16.0227H7.29167C6.51176 16.0227 5.83213 15.571 5.53879 14.9127L21.9469 13.9869C22.3949 13.9616 22.7739 13.6599 22.8827 13.2419L24.9689 5.23038C25.1306 4.60915 24.6409 4.00553 23.9728 4.00553ZM7.28473 20.0285C6.70068 20.0285 6.22546 19.5722 6.22546 19.0114C6.22546 18.4506 6.70068 17.9943 7.28473 17.9943C7.86883 17.9943 8.34404 18.4506 8.34404 19.0114C8.34404 19.5722 7.86883 20.0285 7.28473 20.0285ZM18.7578 20.0285C18.1737 20.0285 17.6985 19.5722 17.6985 19.0114C17.6985 18.4506 18.1737 17.9943 18.7578 17.9943C19.3419 17.9943 19.8171 18.4506 19.8171 19.0114C19.8171 19.5722 19.3419 20.0285 18.7578 20.0285ZM21.0735 12.0612L5.26241 12.9534L4.61021 5.97703H22.6578L21.0735 12.0612Z" fill="#ED2024"/>
</svg>
