<svg width="25" height="25" viewBox="0 0 25 25" fill="none" xmlns="http://www.w3.org/2000/svg">
<path d="M18.8817 14.8629C17.1441 14.8629 15.7305 16.2765 15.7305 18.0142C15.7305 19.7518 17.1441 21.1655 18.8817 21.1655C20.6197 21.1655 22.033 19.7518 22.033 18.0142C22.033 16.2765 20.6194 14.8629 18.8817 14.8629ZM18.8817 19.5898C18.0128 19.5898 17.3061 18.8831 17.3061 18.0142C17.3061 17.1452 18.0128 16.4385 18.8817 16.4385C19.7507 16.4385 20.4574 17.1452 20.4574 18.0142C20.4574 18.8832 19.7507 19.5898 18.8817 19.5898Z" fill="#ED2024"/>
<path d="M8.11514 14.8629C6.37749 14.8629 4.96387 16.2765 4.96387 18.0142C4.96387 19.7518 6.37749 21.1655 8.11514 21.1655C9.85278 21.1655 11.2664 19.7518 11.2664 18.0142C11.2664 16.2765 9.85278 14.8629 8.11514 14.8629ZM8.11514 19.5898C7.24619 19.5898 6.5395 18.8831 6.5395 18.0142C6.5395 17.1452 7.24619 16.4385 8.11514 16.4385C8.98384 16.4385 9.69077 17.1452 9.69077 18.0142C9.69077 18.8832 8.98408 19.5898 8.11514 19.5898Z" fill="#ED2024"/>
<path d="M21.0036 5.84363C20.8697 5.57761 20.5974 5.40979 20.2996 5.40979H16.1504V6.98543H19.8137L21.9589 11.2522L23.367 10.5442L21.0036 5.84363Z" fill="#ED2024"/>
<path d="M16.5188 17.2534H10.5576V18.8291H16.5188V17.2534Z" fill="#ED2024"/>
<path d="M5.75127 17.2534H3.02021C2.58506 17.2534 2.23242 17.6061 2.23242 18.0412C2.23242 18.4764 2.58511 18.829 3.02021 18.829H5.75132C6.18647 18.829 6.53911 18.4763 6.53911 18.0412C6.53911 17.6061 6.18642 17.2534 5.75127 17.2534Z" fill="#ED2024"/>
<path d="M24.8348 12.4362L23.2852 10.4404C23.1363 10.2481 22.9065 10.1357 22.6631 10.1357H16.9383V4.62104C16.9383 4.18589 16.5856 3.83325 16.1505 3.83325H3.02021C2.58506 3.83325 2.23242 4.18594 2.23242 4.62104C2.23242 5.05615 2.58511 5.40884 3.02021 5.40884H15.3626V10.9235C15.3626 11.3587 15.7153 11.7113 16.1504 11.7113H22.2773L23.4246 13.1893V17.2523H21.245C20.8098 17.2523 20.4572 17.605 20.4572 18.0401C20.4572 18.4752 20.8099 18.8279 21.245 18.8279H24.2124C24.6476 18.8279 25.0002 18.4752 25.0002 18.0401V12.9194C25.0002 12.7445 24.9419 12.5743 24.8348 12.4362Z" fill="#ED2024"/>
<path d="M5.6979 13.2621H2.07393C1.63877 13.2621 1.28613 13.6148 1.28613 14.0499C1.28613 14.485 1.63882 14.8377 2.07393 14.8377H5.69785C6.13301 14.8377 6.48564 14.485 6.48564 14.0499C6.48569 13.6148 6.13301 13.2621 5.6979 13.2621Z" fill="#ED2024"/>
<path d="M7.5105 10.1631H0.787793C0.352686 10.1631 0 10.5158 0 10.9509C0 11.3861 0.352686 11.7387 0.787793 11.7387H7.5105C7.94565 11.7387 8.29829 11.386 8.29829 10.9509C8.29829 10.5158 7.94565 10.1631 7.5105 10.1631Z" fill="#ED2024"/>
<path d="M8.79663 7.06433H2.07393C1.63877 7.06433 1.28613 7.41702 1.28613 7.85212C1.28613 8.28728 1.63882 8.63992 2.07393 8.63992H8.79663C9.23179 8.63992 9.58442 8.28723 9.58442 7.85212C9.58447 7.41702 9.23179 7.06433 8.79663 7.06433Z" fill="#ED2024"/>
</svg>
