<svg width="24" height="24" viewBox="0 0 24 24" fill="none" xmlns="http://www.w3.org/2000/svg">
<path d="M20.144 1.61731H3.83064C2.12502 1.61731 0.737305 3.00475 0.737305 4.71065V14.6941C0.737305 16.3961 2.11897 17.7814 3.81966 17.7874V22.3177L10.3303 17.7874H20.144C21.8496 17.7874 23.2373 16.3997 23.2373 14.6941V4.71065C23.2373 3.00475 21.8496 1.61731 20.144 1.61731ZM21.9189 14.6941C21.9189 15.6727 21.1227 16.469 20.144 16.469H9.91666L5.13802 19.7943V16.469H3.83064C2.8519 16.469 2.05566 15.6727 2.05566 14.6941V4.71065C2.05566 3.73177 2.8519 2.93567 3.83064 2.93567H20.144C21.1227 2.93567 21.9189 3.73177 21.9189 4.71065V14.6941Z" fill="#ED2024"/>
<path d="M6.76074 6.27588H17.2167V7.59424H6.76074V6.27588Z" fill="#ED2024"/>
<path d="M6.76074 9.08838H17.2167V10.4067H6.76074V9.08838Z" fill="#ED2024"/>
<path d="M6.76074 11.9009H17.2167V13.2192H6.76074V11.9009Z" fill="#ED2024"/>
</svg>
