<svg>

	<symbol id="l" viewBox="0 0 25 32" xmlns="http://www.w3.org/2000/svg">
		<path d="M6.29847 0.118652H0.0898438V31.3255H24.4361V24.2023H6.29847V0.118652Z"/>
	</symbol>

	<symbol id="e" viewBox="0 0 24 32" xmlns="http://www.w3.org/2000/svg">
		<path d="M6.4864 24.6284V18.1907V18.0055H19.5761V12.6237H6.4864V12.318V6.88993H22.6251L18.2957 0.32251H0.544922V31.0755H23.7029V24.6284H6.4864Z"/>
	</symbol>

	<symbol id="v" viewBox="0 0 52 45" xmlns="http://www.w3.org/2000/svg">
		<path d="M25.9952 44.4488C17.4837 29.767 9.08265 15.0019 0.617188 0.28308C6.05203 0.28308 11.4961 0.227502 16.931 0.28308C21.5368 8.61972 26.4281 16.7711 31.0707 25.0707C34.8199 18.5866 38.5322 12.0377 42.2905 5.53516C40.8903 5.53516 39.527 5.53516 38.0808 5.53516C36.0266 9.11992 33.1618 14.1312 31.08 17.7067C30.1097 15.9467 29.1087 14.1991 28.077 12.4638C30.1404 8.86983 33.042 3.86784 35.087 0.255292C40.5034 0.199714 45.9291 0.255292 51.3455 0.255292C42.8831 14.9834 34.433 29.7145 25.9952 44.4488ZM9.65377 5.54443C9.65377 5.54443 20.5511 24.5057 25.9767 33.9909C26.6492 32.7589 27.3585 31.5362 28.077 30.332C23.3514 22.0788 13.8819 5.57222 13.8819 5.57222L9.65377 5.54443Z"/>
	</symbol>

	<symbol id="o" viewBox="0 0 32 33" xmlns="http://www.w3.org/2000/svg">
		<path d="M15.7209 0.294312C6.39878 0.294312 0.494141 7.03773 0.494141 16.1617C0.494141 25.2857 6.39878 32.0755 15.7209 32.0755C25.0431 32.0755 31.0122 25.295 31.0122 16.1617C31.0122 7.02847 25.0431 0.294312 15.7209 0.294312ZM15.7209 24.9059C10.194 24.9059 7.43047 20.8951 7.43047 16.1247C7.43047 11.3543 10.194 7.50087 15.7209 7.50087C21.2479 7.50087 24.0114 11.2987 24.0114 16.1247C24.0114 20.9507 21.2387 24.9152 15.7209 24.9152V24.9059Z"/>
	</symbol>

	<symbol id="x" viewBox="0 0 33 31" xmlns="http://www.w3.org/2000/svg">
		<path d="M20.9058 15.0321L32.4664 0.32251H24.2128L16.8343 9.83554L9.44658 0.32251H1.16533L12.7167 15.1247L0.796875 30.2603H9.07812L16.7974 20.3212L24.526 30.2603H32.8072L20.9058 15.0321Z"/>
	</symbol>

</svg>