<svg width="20" height="20" viewBox="0 0 20 20" fill="none" xmlns="http://www.w3.org/2000/svg">
<path d="M18.8901 17.8296L13.6613 12.6007C14.653 11.3764 15.25 9.81978 15.25 8.12503C15.25 4.19631 12.0537 1 8.125 1C4.19627 1 1 4.19631 1 8.12503C1 12.0538 4.19631 15.2501 8.12503 15.2501C9.81978 15.2501 11.3764 14.653 12.6007 13.6613L17.8296 18.8902C17.9761 19.0366 18.2135 19.0366 18.36 18.8902L18.8902 18.36C19.0366 18.2135 19.0366 17.976 18.8901 17.8296ZM8.12503 13.75C5.02322 13.75 2.50002 11.2268 2.50002 8.12503C2.50002 5.02322 5.02322 2.50002 8.12503 2.50002C11.2268 2.50002 13.75 5.02322 13.75 8.12503C13.75 11.2268 11.2268 13.75 8.12503 13.75Z" fill="#919191" stroke="#919191" stroke-width="0.5"/>
</svg>
