<svg>
	<symbol id="soft-furniture" viewBox="0 0 40 24" xmlns="http://www.w3.org/2000/svg">
		<mask id="path-1-outside-1" maskUnits="userSpaceOnUse" x="-0.845703" y="0.119995" width="40" height="24" fill="black">
		<rect fill="white" x="-0.845703" y="0.119995" width="40" height="24"/>
		<path d="M38.3668 6.75049C38.0174 6.33575 37.5344 6.0539 36.9998 5.95274L36.0147 2.5941C35.89 2.17096 35.6314 1.79903 35.2772 1.53349C34.923 1.26795 34.4921 1.12295 34.0485 1.12H5.02609C4.58224 1.12315 4.1512 1.2682 3.79674 1.53368C3.44228 1.79916 3.18323 2.17096 3.05791 2.5941L2.07479 5.95274C1.54361 6.05597 1.06434 6.33765 0.71743 6.75049C0.49338 7.01404 0.329933 7.32301 0.238499 7.65583C0.147064 7.98866 0.12985 8.33731 0.18806 8.67742L1.49695 16.5412C1.64965 17.4892 2.10682 18.3627 2.8002 19.0312C3.49357 19.6998 4.38596 20.1275 5.3441 20.2506V23.2219C5.34256 23.2971 5.3561 23.3719 5.38393 23.4418C5.41177 23.5118 5.45334 23.5755 5.50623 23.6293C5.55912 23.6831 5.62225 23.7259 5.69197 23.7552C5.76168 23.7845 5.83656 23.7998 5.91226 23.8H8.04526C8.15638 23.7996 8.26495 23.7669 8.35762 23.7059C8.4503 23.645 8.52303 23.5585 8.56687 23.457L9.93393 20.2949H22.4042C22.4466 20.2944 22.4888 20.2899 22.5303 20.2814H24.9464C24.9872 20.2899 25.0288 20.2944 25.0705 20.2949H28.7547L30.1237 23.457C30.1674 23.5586 30.2401 23.6453 30.3328 23.7062C30.4255 23.7672 30.5342 23.7998 30.6454 23.8H32.7784C32.854 23.7998 32.9289 23.7845 32.9986 23.7552C33.0684 23.7259 33.1315 23.6831 33.1844 23.6293C33.2373 23.5755 33.2788 23.5118 33.3067 23.4418C33.3345 23.3719 33.3481 23.2971 33.3465 23.2219V20.2737C34.3785 20.2322 35.3642 19.837 36.1362 19.1552C36.9082 18.4734 37.4188 17.5471 37.5815 16.5335L38.8904 8.66972C38.9477 8.33122 38.9305 7.9844 38.8402 7.65311C38.7498 7.32181 38.5883 7.01389 38.3668 6.75049ZM4.15738 2.91397C4.2126 2.72515 4.32779 2.55913 4.48575 2.44071C4.64371 2.32229 4.83598 2.2578 5.03385 2.25688H34.0485C34.2462 2.25842 34.4381 2.32314 34.596 2.44147C34.7538 2.5598 34.8692 2.72547 34.9249 2.91397L35.9682 6.47301L34.126 12.2538C33.9558 11.9336 33.7011 11.6655 33.3892 11.4781C33.0773 11.2907 32.7201 11.1912 32.3556 11.1901H20.9693C20.7005 11.1899 20.4345 11.2437 20.1872 11.3484C19.94 11.453 19.7166 11.6063 19.5305 11.7991C19.3444 11.6063 19.121 11.453 18.8737 11.3484C18.6265 11.2437 18.3604 11.1899 18.0917 11.1901H6.71892C6.3544 11.1908 5.99694 11.2901 5.68501 11.4775C5.37307 11.665 5.11845 11.9333 4.94853 12.2538L3.10639 6.47301L4.15738 2.91397ZM33.2243 13.1884V14.5893H20.0986V13.1884C20.0984 13.0745 20.1207 12.9617 20.1643 12.8564C20.2079 12.7511 20.272 12.6554 20.3528 12.5747C20.4337 12.494 20.5297 12.4299 20.6355 12.3861C20.7413 12.3423 20.8547 12.3196 20.9693 12.3193H32.3556C32.5867 12.3203 32.808 12.4124 32.9708 12.5753C33.1337 12.7383 33.2249 12.9587 33.2243 13.1884ZM18.9623 13.1884V14.5893H5.84827V13.1884C5.84826 12.9586 5.93987 12.7381 6.10304 12.5752C6.26621 12.4124 6.48765 12.3203 6.71892 12.3193H18.0917C18.2063 12.3196 18.3197 12.3423 18.4255 12.3861C18.5312 12.4299 18.6273 12.494 18.7081 12.5747C18.789 12.6554 18.853 12.7511 18.8967 12.8564C18.9403 12.9617 18.9626 13.0745 18.9623 13.1884ZM7.66713 22.6458H6.47071V20.2776H8.69291L7.66713 22.6458ZM32.216 22.6458H31.0196L29.9958 20.2776H32.216V22.6458ZM37.7754 8.48281L36.4665 16.3466C36.3411 17.1258 35.9403 17.835 35.3362 18.3471C34.7321 18.8591 33.9641 19.1405 33.17 19.1407H5.90256C5.10841 19.1409 4.34021 18.8597 3.736 18.3475C3.13178 17.8354 2.73116 17.1259 2.60611 16.3466L1.29722 8.48281C1.2676 8.30654 1.27688 8.12598 1.32443 7.95364C1.37197 7.78129 1.45664 7.62127 1.57257 7.48465C1.71627 7.3145 1.90401 7.18657 2.11552 7.11468L4.73911 15.3292C4.77539 15.4441 4.84759 15.5446 4.94522 15.616C5.04285 15.6873 5.16084 15.7259 5.28205 15.7261H33.7867C33.9077 15.7261 34.0255 15.6876 34.1229 15.6161C34.2203 15.5447 34.292 15.4441 34.3277 15.3292L36.9493 7.11468C37.1614 7.18653 37.3498 7.31443 37.4942 7.48465C37.6107 7.62105 37.6962 7.78087 37.7447 7.95316C37.7932 8.12545 37.8037 8.30612 37.7754 8.48281Z"/>
		</mask>
		<path d="M38.3668 6.75049C38.0174 6.33575 37.5344 6.0539 36.9998 5.95274L36.0147 2.5941C35.89 2.17096 35.6314 1.79903 35.2772 1.53349C34.923 1.26795 34.4921 1.12295 34.0485 1.12H5.02609C4.58224 1.12315 4.1512 1.2682 3.79674 1.53368C3.44228 1.79916 3.18323 2.17096 3.05791 2.5941L2.07479 5.95274C1.54361 6.05597 1.06434 6.33765 0.71743 6.75049C0.49338 7.01404 0.329933 7.32301 0.238499 7.65583C0.147064 7.98866 0.12985 8.33731 0.18806 8.67742L1.49695 16.5412C1.64965 17.4892 2.10682 18.3627 2.8002 19.0312C3.49357 19.6998 4.38596 20.1275 5.3441 20.2506V23.2219C5.34256 23.2971 5.3561 23.3719 5.38393 23.4418C5.41177 23.5118 5.45334 23.5755 5.50623 23.6293C5.55912 23.6831 5.62225 23.7259 5.69197 23.7552C5.76168 23.7845 5.83656 23.7998 5.91226 23.8H8.04526C8.15638 23.7996 8.26495 23.7669 8.35762 23.7059C8.4503 23.645 8.52303 23.5585 8.56687 23.457L9.93393 20.2949H22.4042C22.4466 20.2944 22.4888 20.2899 22.5303 20.2814H24.9464C24.9872 20.2899 25.0288 20.2944 25.0705 20.2949H28.7547L30.1237 23.457C30.1674 23.5586 30.2401 23.6453 30.3328 23.7062C30.4255 23.7672 30.5342 23.7998 30.6454 23.8H32.7784C32.854 23.7998 32.9289 23.7845 32.9986 23.7552C33.0684 23.7259 33.1315 23.6831 33.1844 23.6293C33.2373 23.5755 33.2788 23.5118 33.3067 23.4418C33.3345 23.3719 33.3481 23.2971 33.3465 23.2219V20.2737C34.3785 20.2322 35.3642 19.837 36.1362 19.1552C36.9082 18.4734 37.4188 17.5471 37.5815 16.5335L38.8904 8.66972C38.9477 8.33122 38.9305 7.9844 38.8402 7.65311C38.7498 7.32181 38.5883 7.01389 38.3668 6.75049ZM4.15738 2.91397C4.2126 2.72515 4.32779 2.55913 4.48575 2.44071C4.64371 2.32229 4.83598 2.2578 5.03385 2.25688H34.0485C34.2462 2.25842 34.4381 2.32314 34.596 2.44147C34.7538 2.5598 34.8692 2.72547 34.9249 2.91397L35.9682 6.47301L34.126 12.2538C33.9558 11.9336 33.7011 11.6655 33.3892 11.4781C33.0773 11.2907 32.7201 11.1912 32.3556 11.1901H20.9693C20.7005 11.1899 20.4345 11.2437 20.1872 11.3484C19.94 11.453 19.7166 11.6063 19.5305 11.7991C19.3444 11.6063 19.121 11.453 18.8737 11.3484C18.6265 11.2437 18.3604 11.1899 18.0917 11.1901H6.71892C6.3544 11.1908 5.99694 11.2901 5.68501 11.4775C5.37307 11.665 5.11845 11.9333 4.94853 12.2538L3.10639 6.47301L4.15738 2.91397ZM33.2243 13.1884V14.5893H20.0986V13.1884C20.0984 13.0745 20.1207 12.9617 20.1643 12.8564C20.2079 12.7511 20.272 12.6554 20.3528 12.5747C20.4337 12.494 20.5297 12.4299 20.6355 12.3861C20.7413 12.3423 20.8547 12.3196 20.9693 12.3193H32.3556C32.5867 12.3203 32.808 12.4124 32.9708 12.5753C33.1337 12.7383 33.2249 12.9587 33.2243 13.1884ZM18.9623 13.1884V14.5893H5.84827V13.1884C5.84826 12.9586 5.93987 12.7381 6.10304 12.5752C6.26621 12.4124 6.48765 12.3203 6.71892 12.3193H18.0917C18.2063 12.3196 18.3197 12.3423 18.4255 12.3861C18.5312 12.4299 18.6273 12.494 18.7081 12.5747C18.789 12.6554 18.853 12.7511 18.8967 12.8564C18.9403 12.9617 18.9626 13.0745 18.9623 13.1884ZM7.66713 22.6458H6.47071V20.2776H8.69291L7.66713 22.6458ZM32.216 22.6458H31.0196L29.9958 20.2776H32.216V22.6458ZM37.7754 8.48281L36.4665 16.3466C36.3411 17.1258 35.9403 17.835 35.3362 18.3471C34.7321 18.8591 33.9641 19.1405 33.17 19.1407H5.90256C5.10841 19.1409 4.34021 18.8597 3.736 18.3475C3.13178 17.8354 2.73116 17.1259 2.60611 16.3466L1.29722 8.48281C1.2676 8.30654 1.27688 8.12598 1.32443 7.95364C1.37197 7.78129 1.45664 7.62127 1.57257 7.48465C1.71627 7.3145 1.90401 7.18657 2.11552 7.11468L4.73911 15.3292C4.77539 15.4441 4.84759 15.5446 4.94522 15.616C5.04285 15.6873 5.16084 15.7259 5.28205 15.7261H33.7867C33.9077 15.7261 34.0255 15.6876 34.1229 15.6161C34.2203 15.5447 34.292 15.4441 34.3277 15.3292L36.9493 7.11468C37.1614 7.18653 37.3498 7.31443 37.4942 7.48465C37.6107 7.62105 37.6962 7.78087 37.7447 7.95316C37.7932 8.12545 37.8037 8.30612 37.7754 8.48281Z" fill="white"/>
		<path d="M38.3668 6.75049C38.0174 6.33575 37.5344 6.0539 36.9998 5.95274L36.0147 2.5941C35.89 2.17096 35.6314 1.79903 35.2772 1.53349C34.923 1.26795 34.4921 1.12295 34.0485 1.12H5.02609C4.58224 1.12315 4.1512 1.2682 3.79674 1.53368C3.44228 1.79916 3.18323 2.17096 3.05791 2.5941L2.07479 5.95274C1.54361 6.05597 1.06434 6.33765 0.71743 6.75049C0.49338 7.01404 0.329933 7.32301 0.238499 7.65583C0.147064 7.98866 0.12985 8.33731 0.18806 8.67742L1.49695 16.5412C1.64965 17.4892 2.10682 18.3627 2.8002 19.0312C3.49357 19.6998 4.38596 20.1275 5.3441 20.2506V23.2219C5.34256 23.2971 5.3561 23.3719 5.38393 23.4418C5.41177 23.5118 5.45334 23.5755 5.50623 23.6293C5.55912 23.6831 5.62225 23.7259 5.69197 23.7552C5.76168 23.7845 5.83656 23.7998 5.91226 23.8H8.04526C8.15638 23.7996 8.26495 23.7669 8.35762 23.7059C8.4503 23.645 8.52303 23.5585 8.56687 23.457L9.93393 20.2949H22.4042C22.4466 20.2944 22.4888 20.2899 22.5303 20.2814H24.9464C24.9872 20.2899 25.0288 20.2944 25.0705 20.2949H28.7547L30.1237 23.457C30.1674 23.5586 30.2401 23.6453 30.3328 23.7062C30.4255 23.7672 30.5342 23.7998 30.6454 23.8H32.7784C32.854 23.7998 32.9289 23.7845 32.9986 23.7552C33.0684 23.7259 33.1315 23.6831 33.1844 23.6293C33.2373 23.5755 33.2788 23.5118 33.3067 23.4418C33.3345 23.3719 33.3481 23.2971 33.3465 23.2219V20.2737C34.3785 20.2322 35.3642 19.837 36.1362 19.1552C36.9082 18.4734 37.4188 17.5471 37.5815 16.5335L38.8904 8.66972C38.9477 8.33122 38.9305 7.9844 38.8402 7.65311C38.7498 7.32181 38.5883 7.01389 38.3668 6.75049ZM4.15738 2.91397C4.2126 2.72515 4.32779 2.55913 4.48575 2.44071C4.64371 2.32229 4.83598 2.2578 5.03385 2.25688H34.0485C34.2462 2.25842 34.4381 2.32314 34.596 2.44147C34.7538 2.5598 34.8692 2.72547 34.9249 2.91397L35.9682 6.47301L34.126 12.2538C33.9558 11.9336 33.7011 11.6655 33.3892 11.4781C33.0773 11.2907 32.7201 11.1912 32.3556 11.1901H20.9693C20.7005 11.1899 20.4345 11.2437 20.1872 11.3484C19.94 11.453 19.7166 11.6063 19.5305 11.7991C19.3444 11.6063 19.121 11.453 18.8737 11.3484C18.6265 11.2437 18.3604 11.1899 18.0917 11.1901H6.71892C6.3544 11.1908 5.99694 11.2901 5.68501 11.4775C5.37307 11.665 5.11845 11.9333 4.94853 12.2538L3.10639 6.47301L4.15738 2.91397ZM33.2243 13.1884V14.5893H20.0986V13.1884C20.0984 13.0745 20.1207 12.9617 20.1643 12.8564C20.2079 12.7511 20.272 12.6554 20.3528 12.5747C20.4337 12.494 20.5297 12.4299 20.6355 12.3861C20.7413 12.3423 20.8547 12.3196 20.9693 12.3193H32.3556C32.5867 12.3203 32.808 12.4124 32.9708 12.5753C33.1337 12.7383 33.2249 12.9587 33.2243 13.1884ZM18.9623 13.1884V14.5893H5.84827V13.1884C5.84826 12.9586 5.93987 12.7381 6.10304 12.5752C6.26621 12.4124 6.48765 12.3203 6.71892 12.3193H18.0917C18.2063 12.3196 18.3197 12.3423 18.4255 12.3861C18.5312 12.4299 18.6273 12.494 18.7081 12.5747C18.789 12.6554 18.853 12.7511 18.8967 12.8564C18.9403 12.9617 18.9626 13.0745 18.9623 13.1884ZM7.66713 22.6458H6.47071V20.2776H8.69291L7.66713 22.6458ZM32.216 22.6458H31.0196L29.9958 20.2776H32.216V22.6458ZM37.7754 8.48281L36.4665 16.3466C36.3411 17.1258 35.9403 17.835 35.3362 18.3471C34.7321 18.8591 33.9641 19.1405 33.17 19.1407H5.90256C5.10841 19.1409 4.34021 18.8597 3.736 18.3475C3.13178 17.8354 2.73116 17.1259 2.60611 16.3466L1.29722 8.48281C1.2676 8.30654 1.27688 8.12598 1.32443 7.95364C1.37197 7.78129 1.45664 7.62127 1.57257 7.48465C1.71627 7.3145 1.90401 7.18657 2.11552 7.11468L4.73911 15.3292C4.77539 15.4441 4.84759 15.5446 4.94522 15.616C5.04285 15.6873 5.16084 15.7259 5.28205 15.7261H33.7867C33.9077 15.7261 34.0255 15.6876 34.1229 15.6161C34.2203 15.5447 34.292 15.4441 34.3277 15.3292L36.9493 7.11468C37.1614 7.18653 37.3498 7.31443 37.4942 7.48465C37.6107 7.62105 37.6962 7.78087 37.7447 7.95316C37.7932 8.12545 37.8037 8.30612 37.7754 8.48281Z" stroke="white" stroke-width="0.3" mask="url(#path-1-outside-1)"/>
	</symbol>
	<symbol id="tables" viewBox="0 0 38 27" xmlns="http://www.w3.org/2000/svg">
		<path d="M0.369136 0.99348L0.319141 0.993485V1.04348V4.48147V4.53147H0.369141H1.59638V26.8284V26.8784H1.64638H5.13864H5.18624L5.18858 26.8308L5.2023 26.5524L5.20231 26.5521L5.27431 24.9038L5.27432 24.9036L5.98237 10.1204L5.98239 10.1198L6.17276 4.52975H31.7392L31.9364 10.125L31.9364 10.1256L32.4627 21.139L32.4628 21.1392L32.7113 26.8271L32.7134 26.8749H32.7613H32.7853H36.2793H36.3293V26.8249V4.52802H37.5565H37.6065V4.47802V1.04004V0.990034L37.5565 0.990039L0.369136 0.99348ZM3.9829 24.856L3.98289 24.8562L3.94753 25.5751H2.89476V4.53147H4.87211L3.9829 24.856ZM35.0292 25.5751H33.9765L33.7627 21.1157L33.7627 21.1155L33.0398 4.52975H35.0292V16.7654V25.5751ZM36.3064 3.22817H1.61923V2.29678H36.3064V3.22817Z" fill="white" stroke="white" stroke-width="0.1"/>
	</symbol>
	<symbol id="services" viewBox="0 0 30 31" xmlns="http://www.w3.org/2000/svg">
		<path d="M26.182 12.5182L15.0001 8.81158L3.81809 12.5182L0 18.5829L3.51491 19.7481V26.1942L15 30.0013L26.4851 26.1942V19.7481L30 18.5829L26.182 12.5182ZM22.8127 13.2533L15.0001 15.843L7.18744 13.2533L15.0001 10.6636L22.8127 13.2533ZM2.68329 17.6204L4.77094 14.3043L13.6584 17.2503L11.5708 20.5664L2.68329 17.6204ZM5.27289 20.3308L12.3248 22.6684L14.1211 19.8151V27.858L5.27289 24.9249V20.3308ZM15.879 27.8579V19.8151L17.6753 22.6683L24.7272 20.3308V24.9249L15.879 27.8579ZM18.4293 20.5665L16.3417 17.2504L25.2292 14.3043L27.3168 17.6205L18.4293 20.5665Z" fill="white"/>
		<path d="M14.1211 0H15.879V5.86994H14.1211V0Z" fill="white"/>
		<path d="M5.85449 2.6861L7.37685 1.80714L10.3118 6.8905L8.78946 7.76946L5.85449 2.6861Z" fill="white"/>
		<path d="M19.6885 6.89111L22.6234 1.80775L24.1458 2.68671L21.2108 7.77007L19.6885 6.89111Z" fill="white"/>
	</symbol>
	<symbol id="promotions" viewBox="0 0 29 31" xmlns="http://www.w3.org/2000/svg">
		<path d="M27.1036 15.8715C27.0457 15.7543 27.0155 15.6253 27.0155 15.4946C27.0155 15.3638 27.0457 15.2348 27.1036 15.1175L28.1963 12.8965C28.4909 12.3055 28.5426 11.6228 28.3404 10.9942C28.1382 10.3655 27.698 9.8408 27.114 9.53205L24.9286 8.36601C24.812 8.30414 24.7113 8.2161 24.6344 8.10888C24.5575 8.00165 24.5064 7.87814 24.4853 7.74793L24.0729 5.30849C23.9629 4.65757 23.6028 4.0754 23.0694 3.68593C22.536 3.29646 21.8715 3.13056 21.2175 3.22358L18.7641 3.5635C18.6344 3.5826 18.5021 3.57126 18.3776 3.5305C18.2531 3.48974 18.1398 3.42064 18.0466 3.3286L16.2694 1.60413C15.7979 1.14178 15.1642 0.88194 14.5036 0.880016C13.843 0.878091 13.2078 1.13427 12.7336 1.59387L10.9482 3.31009C10.8544 3.40124 10.741 3.46961 10.6166 3.50998C10.4922 3.55035 10.3601 3.5616 10.2307 3.54288L7.77726 3.18857C7.12375 3.0923 6.45846 3.25479 5.92314 3.64157C5.38783 4.02834 5.02483 4.60877 4.9115 5.2591L4.47648 7.69431C4.45587 7.82498 4.40483 7.94901 4.32748 8.05636C4.25013 8.16372 4.14863 8.25141 4.03115 8.31239L1.83956 9.46827C1.25474 9.77417 0.812465 10.296 0.606847 10.9228C0.401229 11.5497 0.448507 12.232 0.738616 12.8245L1.82101 15.0515C1.87902 15.1691 1.9092 15.2985 1.9092 15.4296C1.9092 15.5607 1.87902 15.6901 1.82101 15.8077L0.726247 18.0287C0.432439 18.6197 0.381384 19.3021 0.583983 19.9303C0.786581 20.5585 1.22679 21.0826 1.8107 21.391L3.9961 22.5571C4.1125 22.6193 4.21302 22.7073 4.28989 22.8145C4.36676 22.9217 4.4179 23.0451 4.43937 23.1752L4.85171 25.6145C4.95096 26.2033 5.25542 26.7381 5.7112 27.1242C6.16699 27.5103 6.74474 27.7229 7.34224 27.7243C7.4643 27.7242 7.58621 27.7159 7.70716 27.6996L10.1606 27.3596C10.2902 27.3413 10.4223 27.353 10.5466 27.3937C10.671 27.4345 10.7844 27.5032 10.8781 27.5945L12.6552 29.321C13.1281 29.782 13.7626 30.04 14.4232 30.04C15.0838 30.04 15.7182 29.782 16.1911 29.321L17.9765 27.6048C18.0702 27.5136 18.1837 27.4453 18.3081 27.4053C18.4326 27.3653 18.5647 27.3546 18.694 27.374L21.1474 27.7263C21.7995 27.8234 22.4637 27.6624 22.9989 27.2777C23.5341 26.8929 23.8979 26.3147 24.0132 25.6661L24.4461 23.2288C24.4676 23.0982 24.5192 22.9743 24.5968 22.867C24.6745 22.7597 24.776 22.672 24.8935 22.6108L27.0851 21.457C27.6704 21.1511 28.1131 20.6288 28.3187 20.0015C28.5244 19.3742 28.4768 18.6914 28.186 18.0987L27.1036 15.8715ZM25.5904 16.6071L26.6727 18.8321C26.7713 19.0329 26.7874 19.2642 26.7177 19.4767C26.648 19.6892 26.4979 19.866 26.2996 19.9694L24.108 21.1232C23.7649 21.3027 23.4676 21.5587 23.2392 21.8713C23.0108 22.1838 22.8573 22.5447 22.7906 22.9259L22.3555 25.3633C22.3176 25.5834 22.1949 25.7798 22.0139 25.9107C21.8328 26.0416 21.6076 26.0966 21.3865 26.0637L18.9352 25.7093C18.5521 25.6525 18.1611 25.6848 17.7925 25.8034C17.4238 25.922 17.0875 26.1239 16.8096 26.3934L15.0241 28.1096C14.8643 28.2657 14.6497 28.353 14.4262 28.353C14.2028 28.353 13.9882 28.2657 13.8284 28.1096L12.0512 26.383C11.5818 25.9224 10.9504 25.6643 10.2925 25.664C10.1711 25.662 10.0497 25.6703 9.92968 25.6888L7.47625 26.0287C7.25476 26.0598 7.02988 26.0033 6.84934 25.8714C6.66881 25.7394 6.54684 25.5423 6.50931 25.322L6.09697 22.8827C6.03175 22.5012 5.8798 22.1397 5.65284 21.8261C5.42587 21.5125 5.12993 21.2551 4.78779 21.0737L2.60239 19.9077C2.40508 19.8032 2.25648 19.6257 2.18829 19.4132C2.12011 19.2007 2.13776 18.97 2.23747 18.7704L3.33018 16.5494C3.50101 16.2022 3.58984 15.8205 3.58984 15.4337C3.58984 15.0469 3.50101 14.6653 3.33018 14.3182L2.24778 12.091C2.14933 11.8906 2.13326 11.6595 2.20299 11.4474C2.27272 11.2352 2.42273 11.0588 2.62095 10.9557L4.81253 9.79995C5.15571 9.621 5.45305 9.36546 5.68151 9.0532C5.90997 8.74094 6.06342 8.38028 6.12996 7.99922L6.56498 5.562C6.60294 5.3419 6.72558 5.14535 6.90667 5.01444C7.08775 4.88353 7.31291 4.82859 7.53398 4.86143L9.98534 5.21373C10.3684 5.27049 10.7594 5.23839 11.1281 5.11977C11.4967 5.00115 11.833 4.79923 12.111 4.52976L13.8964 2.81353C14.0562 2.65749 14.2708 2.57018 14.4943 2.57018C14.7177 2.57018 14.9323 2.65749 15.0922 2.81353L16.8694 4.538C17.1461 4.80856 17.4812 5.01202 17.8491 5.13275C18.2169 5.25348 18.6075 5.28824 18.9909 5.23435L21.4443 4.89443C21.6655 4.8628 21.8904 4.91875 22.071 5.05036C22.2516 5.18197 22.3737 5.37882 22.4112 5.59902L22.8236 8.03836C22.8884 8.41971 23.04 8.78114 23.2666 9.09475C23.4932 9.40836 23.7888 9.66585 24.1307 9.84733L26.3161 11.0135C26.5137 11.1176 26.6628 11.2949 26.7314 11.5074C26.7999 11.7199 26.7826 11.9508 26.6831 12.1508L25.5904 14.3717C25.4192 14.7194 25.3301 15.1018 25.3301 15.4893C25.3301 15.8769 25.4192 16.2593 25.5904 16.6071Z" fill="white"/>
		<path d="M20.6191 9.33423C20.4611 9.17709 20.2472 9.08887 20.0243 9.08887C19.8014 9.08887 19.5875 9.17709 19.4295 9.33423L8.29631 20.4C8.13906 20.5579 8.05078 20.7716 8.05078 20.9944C8.05078 21.2172 8.13906 21.4308 8.29631 21.5887C8.45432 21.7459 8.66818 21.8341 8.8911 21.8341C9.11403 21.8341 9.32789 21.7459 9.48591 21.5887L20.6191 10.521C20.7757 10.3632 20.8636 10.1499 20.8636 9.92767C20.8636 9.7054 20.7757 9.49205 20.6191 9.33423Z" fill="white"/>
		<path d="M11.0985 14.0504C11.7109 14.0536 12.3104 13.8752 12.8211 13.5376C13.3318 13.2 13.7308 12.7185 13.9674 12.154C14.204 11.5896 14.2676 10.9677 14.1501 10.3672C14.0327 9.7666 13.7394 9.21435 13.3076 8.78049C12.8758 8.34663 12.3248 8.0507 11.7244 7.93011C11.1241 7.80953 10.5014 7.86973 9.93538 8.10315C9.36933 8.33657 8.88537 8.73267 8.54482 9.24125C8.20427 9.74982 8.02247 10.348 8.02246 10.9599C8.02245 11.7767 8.34601 12.5603 8.92241 13.1394C9.49881 13.7185 10.2812 14.046 11.0985 14.0504ZM11.1088 9.56719C11.3861 9.5676 11.657 9.65012 11.8874 9.80441C12.1177 9.95869 12.2971 10.1778 12.4028 10.434C12.5085 10.6901 12.5359 10.9718 12.4814 11.2435C12.4269 11.5152 12.293 11.7646 12.0966 11.9603C11.9003 12.1559 11.6503 12.289 11.3782 12.3427C11.1062 12.3963 10.8244 12.3681 10.5684 12.2617C10.3123 12.1553 10.0936 11.9754 9.93993 11.7448C9.78622 11.5142 9.7044 11.2432 9.70481 10.9661C9.70644 10.5949 9.85502 10.2394 10.1181 9.97724C10.3812 9.71512 10.7373 9.56773 11.1088 9.56719Z" fill="white"/>
		<path d="M17.82 16.8708C17.2076 16.8675 16.6081 17.046 16.0974 17.3836C15.5867 17.7212 15.1877 18.2027 14.9511 18.7671C14.7145 19.3315 14.6509 19.9533 14.7684 20.5539C14.8858 21.1545 15.1791 21.7067 15.6109 22.1406C16.0427 22.5744 16.5937 22.8703 17.1941 22.9909C17.7944 23.1115 18.4171 23.0513 18.9831 22.8179C19.5492 22.5845 20.0331 22.1884 20.3737 21.6798C20.7142 21.1713 20.896 20.5731 20.896 19.9612C20.8961 19.1444 20.5725 18.3609 19.9961 17.7818C19.4197 17.2027 18.6373 16.8751 17.82 16.8708ZM17.8076 21.354C17.5303 21.3532 17.2595 21.2702 17.0294 21.1156C16.7993 20.9609 16.6203 20.7416 16.5149 20.4853C16.4096 20.229 16.3826 19.9472 16.4375 19.6756C16.4924 19.404 16.6267 19.1548 16.8233 18.9594C17.02 18.7641 17.2702 18.6314 17.5423 18.5781C17.8144 18.5249 18.0962 18.5534 18.3521 18.6602C18.6079 18.767 18.8263 18.9472 18.9797 19.178C19.1331 19.4089 19.2145 19.68 19.2137 19.9571C19.2121 20.3285 19.0631 20.6841 18.7996 20.9459C18.536 21.2078 18.1793 21.3545 17.8076 21.354Z" fill="white"/>
	</symbol>
	<symbol id="partners" viewBox="0 0 36 24" xmlns="http://www.w3.org/2000/svg">
		<path d="M34.8107 6.54141C35.1882 6.54141 35.4942 6.23453 35.4942 5.8561V1.34528C35.4942 0.966853 35.1882 0.659973 34.8107 0.659973H31.1199C30.5119 0.659973 29.9958 1.06033 29.8188 1.61179H20.2013C20.194 1.60816 20.1872 1.60405 20.1798 1.60069C18.3239 0.755231 16.2855 0.515168 14.2851 0.906752L8.7641 1.987H6.23905C6.21574 1.25153 5.61332 0.659973 4.87427 0.659973H1.18348C0.805994 0.659973 0.5 0.966853 0.5 1.34528V5.75097C0.5 6.1294 0.805994 6.43628 1.18348 6.43628C1.56097 6.43628 1.86696 6.1294 1.86696 5.75097V2.03059H4.87427V15.0232H1.86696V11.3705C1.86696 10.9921 1.56097 10.6852 1.18348 10.6852C0.805994 10.6852 0.5 10.9921 0.5 11.3705V15.7085C0.5 16.0869 0.805994 16.3938 1.18348 16.3938H4.87427C5.62802 16.3938 6.24123 15.7789 6.24123 15.0232V15.0156C6.55488 15.1039 6.85165 15.2516 7.11069 15.4529L7.42981 15.7007C7.49043 16.2445 7.75303 16.7662 8.20651 17.1408C8.61072 17.4746 9.1001 17.6372 9.58687 17.6372C9.63581 17.6372 9.68468 17.6349 9.73348 17.6316C9.80285 18.1859 10.0757 18.6846 10.5075 19.0413C10.9117 19.3751 11.4011 19.5377 11.8879 19.5376C11.9369 19.5376 11.9857 19.5354 12.0345 19.5321C12.1039 20.0864 12.3768 20.5851 12.8086 20.9418C13.2016 21.2663 13.6843 21.4394 14.187 21.4394C14.2367 21.4394 14.2866 21.4371 14.3366 21.4337C14.4038 21.9661 14.6648 22.475 15.1095 22.8424C15.5025 23.1669 15.9853 23.34 16.4879 23.34C16.5586 23.34 16.6297 23.3365 16.701 23.3296C17.279 23.2736 17.8007 22.9953 18.1699 22.5458L18.7257 21.8693C18.8892 21.6703 19.0112 21.4505 19.0934 21.2207C19.417 21.3939 19.7796 21.4859 20.1558 21.4859C20.1669 21.4859 20.1779 21.4858 20.189 21.4857C20.7936 21.477 21.3585 21.2329 21.7799 20.7981C22.0022 20.5688 22.1659 20.3039 22.2722 20.0223L22.5081 20.2521C22.9472 20.68 23.5164 20.893 24.0853 20.893C24.6757 20.893 25.2657 20.6633 25.7087 20.2063C25.9603 19.9467 26.1369 19.6417 26.2399 19.3183C26.5561 19.4755 26.9012 19.5544 27.2464 19.5544C27.8368 19.5544 28.4268 19.3248 28.8698 18.8677C29.2912 18.4329 29.5185 17.8597 29.5098 17.2535C29.5012 16.6473 29.2577 16.0809 28.8247 15.659L28.3498 15.195L29.753 14.4357V15.0232C29.753 15.7789 30.3662 16.3938 31.1199 16.3938H34.8107C35.1882 16.3938 35.4942 16.0869 35.4942 15.7085V11.1649C35.4942 10.7865 35.1882 10.4796 34.8107 10.4796C34.4332 10.4796 34.1272 10.7865 34.1272 11.1649V15.0232H31.1199V13.291C31.1199 13.2891 31.1199 13.2873 31.1199 13.2854V2.03059H34.1272V5.8561C34.1272 6.23453 34.4332 6.54141 34.8107 6.54141ZM10.7675 15.2962L10.2117 15.9727C9.92875 16.3172 9.41915 16.3667 9.07563 16.0829C8.73211 15.7991 8.68283 15.2881 8.96579 14.9437L9.52167 14.2672C9.6587 14.1003 9.8524 13.997 10.0669 13.9762C10.0934 13.9736 10.1198 13.9723 10.146 13.9723C10.3325 13.9723 10.5119 14.0366 10.6577 14.1571C11.0012 14.4408 11.0504 14.9518 10.7675 15.2962ZM13.0685 17.1968L12.5126 17.8734C12.2298 18.2177 11.72 18.2672 11.3766 17.9834C11.2101 17.846 11.1071 17.6519 11.0864 17.4367C11.0656 17.2215 11.1297 17.0112 11.2668 16.8443L11.8227 16.1677C11.9597 16.0008 12.1533 15.8975 12.368 15.8768C12.3944 15.8742 12.4208 15.8729 12.447 15.8729C12.6336 15.8729 12.8129 15.9372 12.9587 16.0576C13.1251 16.195 13.2281 16.3893 13.2489 16.6044C13.2696 16.8196 13.2056 17.0298 13.0685 17.1968ZM15.3695 19.0971L14.8137 19.7737C14.6766 19.9406 14.483 20.0439 14.2684 20.0646C14.0536 20.0857 13.8439 20.0213 13.6776 19.8838C13.5111 19.7464 13.4081 19.5522 13.3873 19.337C13.3666 19.1219 13.4306 18.9116 13.5677 18.7447L14.1235 18.0681C14.2829 17.8742 14.5141 17.7738 14.7472 17.7738C14.9279 17.7738 15.1097 17.8342 15.2597 17.9581C15.6032 18.2418 15.6525 18.7527 15.3695 19.0971ZM17.6704 20.9977L17.1145 21.6743C16.9775 21.8411 16.7838 21.9445 16.5692 21.9652C16.3544 21.9864 16.1448 21.9218 15.9784 21.7843C15.6349 21.5006 15.5856 20.9896 15.8686 20.6452L16.4245 19.9687C16.5615 19.8018 16.7552 19.6985 16.9698 19.6778C16.9963 19.6752 17.0227 19.6739 17.0489 19.6739C17.2355 19.6739 17.4148 19.7381 17.5606 19.8586C17.7271 19.996 17.8301 20.1902 17.8508 20.4054C17.8715 20.6205 17.8075 20.8309 17.6704 20.9977ZM27.8893 17.9122C27.5448 18.2677 26.9761 18.2758 26.6216 17.9304L24.3555 15.7222C24.353 15.7198 24.3503 15.7178 24.3477 15.7153L22.1153 13.54C21.8447 13.2762 21.4119 13.2825 21.1488 13.5538C20.8858 13.8253 20.8919 14.2591 21.1626 14.5229L24.71 17.9796C25.0646 18.3251 25.0727 18.8954 24.7281 19.2508C24.3837 19.6064 23.8149 19.6144 23.4604 19.2691L19.913 15.8123C19.9059 15.8053 19.8981 15.7993 19.8907 15.7928L18.1864 14.132C17.9157 13.8682 17.483 13.8745 17.2198 14.1458C16.9568 14.4172 16.9629 14.8511 17.2337 15.1149L20.781 18.5716C21.1356 18.9171 21.1437 19.4873 20.7992 19.8428C20.6323 20.015 20.4085 20.1117 20.1691 20.1151C19.9309 20.1194 19.7033 20.0282 19.5314 19.8609L18.5379 18.8928C18.5157 18.8711 18.4919 18.8519 18.4675 18.8338C18.4548 18.8228 18.4425 18.8115 18.4295 18.8007C17.9844 18.4332 17.4359 18.2738 16.9015 18.3099C16.8346 17.7771 16.5735 17.2678 16.1285 16.9002C15.6838 16.5329 15.1356 16.3734 14.6016 16.4093C14.5322 15.8551 14.2594 15.3564 13.8276 14.9997C13.3958 14.6431 12.8551 14.47 12.2995 14.5079C12.2324 13.9755 11.9714 13.4666 11.5267 13.0992C11.0784 12.729 10.5135 12.5563 9.93524 12.612C9.35722 12.668 8.83559 12.9463 8.46637 13.3958L7.9105 14.0723C7.86382 14.1291 7.82062 14.1876 7.78064 14.2476C7.31929 13.9275 6.79171 13.7105 6.24103 13.6116V3.35761H8.82992C8.87386 3.35761 8.91768 3.35336 8.96087 3.34487L14.5468 2.25194C15.4945 2.06656 16.452 2.0469 17.3879 2.18745C16.6808 2.50633 16.0289 2.95266 15.4619 3.51523L10.2871 8.64907C9.34868 9.57999 9.33166 11.1116 10.2492 12.0631C10.7178 12.5493 11.3508 12.8039 11.9916 12.8038C12.3986 12.8037 12.8089 12.701 13.182 12.4897L18.6048 9.41771H20.4771L27.8711 16.6412C28.0429 16.8085 28.1393 17.0329 28.1427 17.273C28.1463 17.513 28.0562 17.7401 27.8893 17.9122ZM29.753 12.8782L27.3237 14.1926L22.436 9.41764H22.9159C23.2934 9.41764 23.5994 9.11076 23.5994 8.73233C23.5994 8.3539 23.2934 8.04702 22.9159 8.04702H18.4252C18.3073 8.04702 18.1915 8.07752 18.089 8.1357L12.5096 11.2963C12.0913 11.5333 11.566 11.4568 11.2321 11.1105C10.8324 10.6959 10.8398 10.0288 11.2486 9.6233L16.4235 4.48946C17.4031 3.51756 18.7016 2.98241 20.0797 2.98241H29.753V12.8782Z" fill="white"/>
		<path d="M35.2936 8.04259C35.1665 7.91444 34.9902 7.8418 34.8104 7.8418C34.6307 7.8418 34.4543 7.91444 34.3272 8.04259C34.2001 8.17006 34.127 8.34625 34.127 8.5271C34.127 8.70734 34.2001 8.88414 34.3272 9.01161C34.4543 9.13901 34.6307 9.2124 34.8104 9.2124C34.9902 9.2124 35.1665 9.13908 35.2936 9.01161C35.4208 8.88346 35.4939 8.70734 35.4939 8.5271C35.4939 8.34618 35.4208 8.17006 35.2936 8.04259Z" fill="white"/>
		<path d="M1.6667 8.04259C1.53957 7.91444 1.36324 7.8418 1.18348 7.8418C1.00372 7.8418 0.827387 7.91444 0.70026 8.04259C0.573132 8.17006 0.5 8.34625 0.5 8.5271C0.5 8.70734 0.573132 8.88346 0.70026 9.01161C0.827387 9.13908 1.00372 9.2124 1.18348 9.2124C1.36324 9.2124 1.53957 9.13908 1.6667 9.01161C1.79383 8.88346 1.86696 8.70734 1.86696 8.5271C1.86696 8.34618 1.79383 8.17006 1.6667 8.04259Z" fill="white"/>
	</symbol>
	<symbol id="living-rooms" viewBox="0 0 38 33" xmlns="http://www.w3.org/2000/svg">
		<path d="M17.0619 24.8551H15.9023V26.8892H17.0619V24.8551Z" fill="white"/>
		<path d="M21.7054 24.8551H20.5459V26.8892H21.7054V24.8551Z" fill="white"/>
		<path d="M36.9447 17.0717H21.0433V15.367H33.3552H33.4552V15.267V0.353149V0.253149H33.3552H4.66963H4.56963V0.353149V15.267V15.367H4.66963H16.9795V17.0717H1.01562H0.915625V17.1717V30.9937V31.0937H1.01562H4.77733V32.7306V32.8306H4.87733H9.2573H9.3573V32.7306V31.0937H28.603V32.7306V32.8306H28.703H33.0809H33.1809V32.7306V31.0937H36.9447H37.0447V30.9937V17.1717V17.0717H36.9447ZM4.85613 29.7351H2.27313V21.9202H18.3004V29.7331H4.87733H4.87024L4.86322 29.7341L4.85613 29.7351ZM2.27313 18.4343H35.671V20.5595H2.27313V18.4343ZM5.91915 1.61779H32.0957V11.3921H5.92705L5.91915 1.61779ZM5.91907 14.0064V12.7547H32.0957V14.0064H5.91907ZM18.331 15.369H19.6757V17.0737H18.331V15.369ZM8.00134 31.0957L7.99214 31.47H6.14291V31.0957H8.00134ZM31.8189 31.0957L31.8097 31.47H29.9605V31.0957H31.8189ZM19.6539 21.9202H35.681L35.6712 29.7351H19.6539V21.9202Z" fill="white" stroke="white" stroke-width="0.2"/>
	</symbol>
	<symbol id="kitchen" viewBox="0 0 40 41" xmlns="http://www.w3.org/2000/svg">
		<path d="M0.280273 25.0899H1.3382V38.0865H2.12518V40.0046H38.0332V38.0865H38.8202V25.0899H39.8781V21.8942H0.280273V25.0899ZM18.3746 36.8056V25.0899H27.3185V36.8056H18.3746ZM2.61544 29.3466H17.0973V36.8056H2.61544V29.3466ZM17.0973 28.0528H2.61544V25.077H17.0973V28.0528ZM36.7527 38.7269H3.40243V38.08H36.7527V38.7269ZM37.5429 36.8088H28.599V25.0899H37.5429V36.8088ZM1.56074 23.1686H38.5976V23.8155H1.56074V23.1686Z" fill="white"/>
		<path d="M27.8701 0.591183H17.0974V7.44202L15.9427 3.37292V0.578247H2.71872V3.37292L0.0771484 12.6788H39.9233V0.591183H27.8701ZM4.00242 1.86237H14.6719V2.83275H3.99274L4.00242 1.86237ZM1.76724 11.3947L3.8347 4.10394H14.8203L16.891 11.3947H1.76724ZM27.8701 11.3947H18.3746V1.87531H27.8701V11.3947ZM38.6332 1.87531V11.3947H29.1474V1.87531H38.6332Z" fill="white"/>
		<path d="M4.94721 27.2926C5.29991 27.2926 5.58583 27.0059 5.58583 26.6522C5.58583 26.2985 5.29991 26.0117 4.94721 26.0117C4.59451 26.0117 4.30859 26.2985 4.30859 26.6522C4.30859 27.0059 4.59451 27.2926 4.94721 27.2926Z" fill="white"/>
		<path d="M8.22065 27.2926C8.57335 27.2926 8.85927 27.0059 8.85927 26.6522C8.85927 26.2985 8.57335 26.0117 8.22065 26.0117C7.86795 26.0117 7.58203 26.2985 7.58203 26.6522C7.58203 27.0059 7.86795 27.2926 8.22065 27.2926Z" fill="white"/>
		<path d="M11.4912 27.2926C11.8439 27.2926 12.1298 27.0059 12.1298 26.6522C12.1298 26.2985 11.8439 26.0117 11.4912 26.0117C11.1385 26.0117 10.8525 26.2985 10.8525 26.6522C10.8525 27.0059 11.1385 27.2926 11.4912 27.2926Z" fill="white"/>
		<path d="M14.7656 27.2926C15.1183 27.2926 15.4042 27.0059 15.4042 26.6522C15.4042 26.2985 15.1183 26.0117 14.7656 26.0117C14.4129 26.0117 14.127 26.2985 14.127 26.6522C14.127 27.0059 14.4129 27.2926 14.7656 27.2926Z" fill="white"/>
		<path d="M4.50293 35.7835H15.4111V30.6082H4.50938L4.50293 35.7835ZM5.79308 31.902H14.121V34.5155H5.7834L5.79308 31.902Z" fill="white"/>
		<path d="M26.038 29.8286H24.7607V32.0702H26.038V29.8286Z" fill="white"/>
		<path d="M31.1571 29.8286H29.8799V32.0702H31.1571V29.8286Z" fill="white"/>
		<path d="M26.5897 4.95459H25.3125V7.19615H26.5897V4.95459Z" fill="white"/>
		<path d="M31.705 4.95459H30.4277V7.19615H31.705V4.95459Z" fill="white"/>
	</symbol>
	<symbol id="hallway" viewBox="0 0 36 39" xmlns="http://www.w3.org/2000/svg">
		<path d="M35.2311 0.42395H0.769531V3.59243H2.04533V36.54H2.68323V38.4399H33.3174V36.54H33.9553V3.59243H35.2311V0.42395ZM3.32113 3.59243H12.2555V25.1365H3.32113V3.59243ZM13.5331 35.2734V3.59243H22.4675V35.2734H13.5331ZM3.32113 26.4013H12.2555V30.2031H3.32113V26.4013ZM12.2555 31.4716V35.2734H3.32113V31.4716H12.2555ZM32.0397 37.1733H3.95903V36.54H32.0397V37.1733ZM32.6776 35.2734H23.7451V3.59243H32.6795L32.6776 35.2734ZM33.9553 2.32391H2.04533V1.69059H33.9553V2.32391Z" fill="white"/>
		<path d="M25.8015 14.3645H25.0195V19.4329H25.8015V14.3645Z" fill="white"/>
		<path d="M21.1917 14.3645H20.3779V19.4329H21.1917V14.3645Z" fill="white"/>
		<path d="M9.06616 32.9258H6.5127V33.6334H9.06616V32.9258Z" fill="white"/>
		<path d="M9.06616 27.9113H6.5127V28.565H9.06616V27.9113Z" fill="white"/>
		<path d="M4.47754 4.50989V24.011H11.212V4.50989H4.47754ZM10.0896 22.7926H5.59994V5.72825H10.0896V22.7926Z" fill="white"/>
	</symbol>
	<symbol id="chairs" viewBox="0 0 22 37" xmlns="http://www.w3.org/2000/svg">
		<path d="M1.08762 21.4595H0.230469H0.180469V21.4095V18.8557C0.180468 18.4094 0.357076 17.9812 0.671575 17.6652C0.986043 17.3493 1.41268 17.1714 1.85786 17.1705L1.08762 21.4595ZM1.08762 21.4595V36.2287V36.2787H1.13762H4.84793H4.89793V36.2287V30.0626H17.1015V36.2287V36.2787H17.1515H20.8618H20.9118V36.2287V21.4595H21.7689H21.8189V21.4095V18.8557V18.8556C21.8181 18.409 21.6409 17.9809 21.3259 17.665C21.0109 17.3492 20.5839 17.1713 20.1385 17.1705H20.1384H18.3565V11.2475H19.0445H19.0446C19.6696 11.2467 20.2687 10.9973 20.7106 10.5542C21.1524 10.111 21.401 9.51028 21.4018 8.88365V8.88358V2.58846V2.5884C21.401 1.96177 21.1524 1.361 20.7106 0.917861C20.2687 0.474718 19.6696 0.225388 19.0446 0.224597H19.0445L2.94611 0.224597L2.94605 0.224597C2.32107 0.225388 1.72195 0.474718 1.28006 0.917861C0.838188 1.361 0.589623 1.96177 0.588834 2.5884V2.58846L0.588834 8.87481L0.588834 8.87487C0.589623 9.5015 0.838188 10.1023 1.28006 10.5454C1.72195 10.9886 2.32107 11.2379 2.94605 11.2387H2.94611H3.63992V17.162L1.85801 17.1705L1.08762 21.4595ZM20.1471 18.4406L20.1474 18.4406C20.2031 18.4403 20.2583 18.451 20.3099 18.4721C20.3614 18.4932 20.4083 18.5244 20.4479 18.5638C20.4874 18.6032 20.5187 18.65 20.5401 18.7016C20.5615 18.7533 20.5726 18.8086 20.5726 18.8645V20.2069H1.43556V18.8645C1.43556 18.752 1.48011 18.6442 1.55937 18.5647C1.63862 18.4852 1.74608 18.4406 1.8581 18.4406H20.1384L20.1471 18.4406ZM3.63992 35.0145H2.34273V21.4595H3.63992V35.0145ZM4.89801 26.7039L4.9066 21.4565H17.1102V26.7039H4.89801ZM4.90668 28.7984V27.9623H17.1102V28.7984H4.90668ZM19.6625 35.0145H18.3653V21.4595H19.6625V35.0145ZM6.99519 17.1705V11.2475H15.0188V17.1705H6.99519ZM17.1044 17.1705H16.271V11.2475H17.1044V17.1705ZM2.94648 9.9949C2.65627 9.99047 2.37915 9.87288 2.17386 9.66701C1.96857 9.46113 1.85127 9.18315 1.84685 8.89198V2.58884C1.85127 2.29767 1.96857 2.01968 2.17386 1.8138C2.37915 1.60793 2.65628 1.49035 2.94649 1.48592H19.0441C19.3344 1.49035 19.6115 1.60793 19.8168 1.8138C20.0221 2.01971 20.1394 2.29774 20.1438 2.58895V8.87481C20.1438 9.16904 20.0284 9.45144 19.8226 9.66101C19.6168 9.87049 19.3372 9.9904 19.0442 9.9949H2.94648ZM4.89793 11.265H5.73135V17.1881H4.89793V11.265Z" fill="white" stroke="white" stroke-width="0.1"/>
	</symbol>
	<symbol id="cabinets-and-racks" viewBox="0 0 38 38" xmlns="http://www.w3.org/2000/svg">
		<path d="M11.164 15.0664V15.0164H11.114H9.93457H9.88457V15.0664V19.015V19.065H9.93457H11.114H11.164V19.015V15.0664Z" fill="white" stroke="white" stroke-width="0.1"/>
		<path d="M22.9697 15.0664V15.0164H22.9197H21.7402H21.6902V15.0664V19.015V19.065H21.7402H22.9197H22.9697V19.015V15.0664Z" fill="white" stroke="white" stroke-width="0.1"/>
		<path d="M34.7782 15.0664V15.0164H34.7282H33.5488H33.4988V15.0664V19.015V19.065H33.5488H34.7282H34.7782V19.015V15.0664Z" fill="white" stroke="white" stroke-width="0.1"/>
		<path d="M0.642383 37.36V37.41H0.692383H5.15985H5.20985V37.36V35.6388H32.7903V37.36V37.41H32.8403H37.3078H37.3578V37.36V0.651978V0.601978H37.3078H0.692383H0.642383V0.651978V32.2287V37.36ZM3.91853 36.1243H1.91882V35.6269H3.91853V36.1243ZM36.0635 36.1243H34.0786V35.6269H36.0635V36.1243ZM36.0635 34.3561H1.91286V33.4614H36.0635V34.3561ZM13.7278 32.1787V1.88476H24.2545V32.1787H13.7278ZM36.0635 32.1787H25.5279V1.88476H36.0575L36.0635 32.1787ZM1.91286 1.88476H12.4395V32.1787H1.91286V1.88476Z" fill="white" stroke="white" stroke-width="0.1"/>
	</symbol>
	<symbol id="buyers" viewBox="0 0 30 32" xmlns="http://www.w3.org/2000/svg">
		<path d="M28.3351 18.95C28.1407 18.6126 27.8495 18.3406 27.4989 18.169C27.2016 18.0191 26.8715 17.9451 26.5383 17.9539C26.2051 17.9626 25.8794 18.0537 25.5904 18.219L20.55 21.1135C20.4683 20.6832 20.2462 20.2918 19.9182 20C19.547 19.6778 19.0712 19.5003 18.5787 19.5H14.48C14.414 19.5001 14.3486 19.4871 14.2876 19.462C14.2266 19.4369 14.1711 19.4 14.1244 19.3535L14.0019 19.2315C13.7695 18.9989 13.493 18.8145 13.1885 18.6889C12.884 18.5634 12.5576 18.4992 12.228 18.5H8.36836C8.29253 18.5 8.21769 18.505 8.11725 18.5125C7.54038 18.5696 7.00111 18.8236 6.59096 19.2315L5.27461 20.543L4.80603 20.0765C4.71185 19.9828 4.58413 19.9301 4.45095 19.9301C4.31778 19.9301 4.19006 19.9828 4.09588 20.0765L1.25374 22.9C1.20705 22.9464 1.17 23.0016 1.14473 23.0623C1.11945 23.123 1.10645 23.188 1.10645 23.2538C1.10645 23.3195 1.11945 23.3845 1.14473 23.4452C1.17 23.5059 1.20705 23.5611 1.25374 23.6075L8.3548 30.6825C8.40145 30.729 8.45684 30.7659 8.51781 30.791C8.57878 30.8162 8.64413 30.8291 8.71013 30.8291C8.77613 30.8291 8.84149 30.8162 8.90246 30.791C8.96343 30.7659 9.01882 30.729 9.06546 30.6825L11.9081 27.8525C12.0022 27.7587 12.0551 27.6316 12.0551 27.499C12.0551 27.3664 12.0022 27.2393 11.9081 27.1455L11.5098 26.749L11.6138 26.6455C11.7081 26.5521 11.8358 26.4998 11.9689 26.5H18.5481C18.9893 26.501 19.4228 26.3846 19.8037 26.163L27.5983 21.683C27.9053 21.509 28.1601 21.2567 28.3366 20.9521C28.5132 20.6475 28.605 20.3016 28.6028 19.95C28.6028 19.5991 28.5105 19.2543 28.3351 18.95ZM8.70988 29.623L2.31898 23.2555L4.45045 21.1365L10.8424 27.5L8.70988 29.623ZM27.0966 20.817L19.2979 25.3C19.0705 25.4319 18.8118 25.501 18.5486 25.5H11.9694C11.7713 25.4994 11.5752 25.5379 11.3922 25.6133C11.2093 25.6888 11.0432 25.7997 10.9036 25.9395L10.7997 26.043L5.98477 21.25L7.30212 19.9385C7.546 19.6956 7.86649 19.5437 8.20966 19.5085C8.2649 19.504 8.31663 19.5 8.36836 19.5H12.228C12.4256 19.4995 12.6214 19.538 12.8039 19.6133C12.9865 19.6886 13.1523 19.7991 13.2917 19.9385L13.4143 20.0605C13.5539 20.2003 13.7199 20.3112 13.9029 20.3867C14.0858 20.4621 14.282 20.5006 14.48 20.5H18.5787C18.8267 20.4996 19.0664 20.5884 19.2537 20.75C19.4425 20.9147 19.5611 21.1448 19.5852 21.3935C19.6016 21.55 19.5786 21.708 19.5184 21.8535C19.4723 21.9876 19.3953 22.109 19.2934 22.208C19.2004 22.301 19.0898 22.3747 18.968 22.4248C18.8462 22.475 18.7156 22.5005 18.5838 22.5H14.2746C14.1414 22.5 14.0137 22.5527 13.9195 22.6464C13.8253 22.7402 13.7724 22.8674 13.7724 23C13.7724 23.1326 13.8253 23.2598 13.9195 23.3536C14.0137 23.4473 14.1414 23.5 14.2746 23.5H18.5838C18.8476 23.5006 19.109 23.449 19.3527 23.3483C19.5964 23.2477 19.8176 23.0999 20.0036 22.9135C20.1666 22.7528 20.2995 22.5643 20.3958 22.357L26.0901 19.084C26.2361 19.0014 26.4004 18.9563 26.5682 18.9528C26.7361 18.9493 26.9021 18.9875 27.0514 19.064C27.2246 19.1485 27.3685 19.2826 27.4647 19.449C27.5524 19.6012 27.5986 19.7736 27.5988 19.949C27.6001 20.125 27.5542 20.2982 27.4659 20.4508C27.3777 20.6033 27.2502 20.7297 27.0966 20.817Z" fill="white" stroke="white" stroke-width="0.5"/>
		<path d="M15.5698 18H23.6055C24.2712 17.9992 24.9095 17.7356 25.3802 17.2669C25.851 16.7982 26.1158 16.1628 26.1166 15.5V5.5C26.1166 5.36739 26.0637 5.24021 25.9695 5.14645C25.8753 5.05268 25.7476 5 25.6144 5H23.1032V4.5C23.1032 3.57174 22.7328 2.6815 22.0735 2.02513C21.4142 1.36875 20.52 1 19.5876 1C18.6552 1 17.761 1.36875 17.1017 2.02513C16.4424 2.6815 16.072 3.57174 16.072 4.5V5H13.5608C13.4276 5 13.2999 5.05268 13.2057 5.14645C13.1115 5.24021 13.0586 5.36739 13.0586 5.5V15.5C13.0594 16.1628 13.3242 16.7982 13.795 17.2669C14.2657 17.7356 14.904 17.9992 15.5698 18ZM17.0764 4.5C17.0764 3.83696 17.341 3.20107 17.8119 2.73223C18.2829 2.26339 18.9216 2 19.5876 2C20.2536 2 20.8923 2.26339 21.3633 2.73223C21.8342 3.20107 22.0988 3.83696 22.0988 4.5V5H17.0764V4.5ZM14.0631 6H16.072V7.5C16.072 7.63261 16.1249 7.75979 16.2191 7.85355C16.3133 7.94732 16.441 8 16.5742 8C16.7074 8 16.8352 7.94732 16.9293 7.85355C17.0235 7.75979 17.0764 7.63261 17.0764 7.5V6H22.0988V7.5C22.0988 7.63261 22.1517 7.75979 22.2459 7.85355C22.3401 7.94732 22.4678 8 22.601 8C22.7342 8 22.8619 7.94732 22.9561 7.85355C23.0503 7.75979 23.1032 7.63261 23.1032 7.5V6H25.1122V15.5C25.1122 15.8978 24.9534 16.2794 24.6709 16.5607C24.3883 16.842 24.0051 17 23.6055 17H15.5698C15.1702 17 14.7869 16.842 14.5044 16.5607C14.2218 16.2794 14.0631 15.8978 14.0631 15.5V6Z" fill="white" stroke="white" stroke-width="0.5"/>
	</symbol>
	<symbol id="bedroom" viewBox="0 0 39 32" xmlns="http://www.w3.org/2000/svg">
		<path d="M36.2573 15.1326C35.127 14.5526 33.6647 14.2606 31.9111 14.2606H12.8421C12.7123 13.5832 12.4019 12.9538 11.9439 12.4391L9.23928 9.42495C8.53708 8.66285 7.56594 8.20566 6.5326 8.15069L6.04584 8.11599C5.79401 8.09878 5.54129 8.1321 5.30246 8.21401V6.62118C5.30223 6.35539 5.24792 6.09245 5.14286 5.84842C5.03781 5.60439 4.88421 5.38442 4.69147 5.20195C5.01147 4.8174 5.21551 4.34936 5.27967 3.85268C5.34384 3.35601 5.26547 2.85126 5.05375 2.39765C4.84202 1.94405 4.50572 1.56036 4.08427 1.29156C3.66282 1.02276 3.17368 0.880005 2.67419 0.880005C2.17469 0.880005 1.68554 1.02276 1.26409 1.29156C0.842636 1.56036 0.506347 1.94405 0.294623 2.39765C0.0828998 2.85126 0.00452039 3.35601 0.0686838 3.85268C0.132847 4.34936 0.336888 4.8174 0.65689 5.20195C0.464524 5.38471 0.311181 5.60473 0.206154 5.84869C0.101128 6.09266 0.0466073 6.35546 0.0458984 6.62118V30.3746C0.0458984 30.4725 0.0651248 30.5694 0.102483 30.6599C0.139841 30.7503 0.194605 30.8325 0.263634 30.9017C0.332662 30.9709 0.414611 31.0258 0.504801 31.0632C0.594991 31.1007 0.691655 31.12 0.789276 31.12H3.35137C3.53599 31.1203 3.71401 31.0512 3.85045 30.9265C3.98688 30.8018 4.07185 30.6305 4.08863 30.4461C4.17824 29.5088 4.67315 26.9337 5.89717 25.78H32.2024C33.4244 26.9317 33.9193 29.5068 34.0089 30.4461C34.0266 30.6305 34.1121 30.8016 34.2488 30.9262C34.3854 31.0507 34.5635 31.1198 34.7482 31.12H37.3103C37.4078 31.12 37.5043 31.1007 37.5944 31.0632C37.6845 31.0257 37.7663 30.9708 37.8352 30.9016C37.904 30.8323 37.9586 30.7501 37.9958 30.6597C38.0329 30.5693 38.0519 30.4724 38.0516 30.3746V18.0956C38.0553 17.4836 37.8896 16.8826 37.5728 16.3594C37.256 15.8363 36.8006 15.4115 36.2573 15.1326ZM5.30042 10.64C5.30042 10.3235 5.26783 9.99469 5.52852 9.7619C5.78921 9.5291 6.10489 9.60467 6.42261 9.62714C7.07353 9.65206 7.68804 9.93478 8.13135 10.4133L10.836 13.4274C11.0602 13.6895 11.2284 13.9949 11.3303 14.3247C11.4322 14.6544 11.4657 15.0017 11.4287 15.345C11.4063 15.6329 11.4124 15.8881 11.17 16.0903C10.9277 16.2925 10.7097 16.2414 10.4429 16.2333C10.0998 16.2325 9.76043 16.1619 9.44535 16.0257C9.13026 15.8895 8.84605 15.6906 8.60996 15.4409L5.90531 12.4268C5.48378 11.9338 5.26852 11.2966 5.3045 10.6482L5.30042 10.64ZM5.30042 13.9829L7.33706 16.2434H5.30042V13.9829ZM2.6752 2.3655C2.90127 2.3655 3.12224 2.43274 3.31017 2.55871C3.49811 2.68468 3.64456 2.86372 3.73098 3.07317C3.81739 3.28262 3.8399 3.51307 3.79565 3.73535C3.7514 3.95763 3.64238 4.16176 3.48239 4.3219C3.3224 4.48203 3.11862 4.59097 2.89686 4.63494C2.67509 4.67891 2.44529 4.65593 2.23655 4.56891C2.02781 4.48188 1.84951 4.33474 1.72421 4.14608C1.59891 3.95742 1.53224 3.73572 1.53264 3.50906C1.5348 3.20647 1.65647 2.91708 1.871 2.70426C2.08554 2.49145 2.37545 2.37258 2.67723 2.37367L2.6752 2.3655ZM1.53264 6.61303C1.53318 6.48827 1.58299 6.36881 1.67116 6.28079C1.75933 6.19277 1.87868 6.14334 2.0031 6.14334H3.34525C3.46949 6.14334 3.58863 6.19283 3.67648 6.28092C3.76433 6.369 3.81368 6.48846 3.81368 6.61303V16.2434H1.53468L1.53264 6.61303ZM2.70575 29.6231H1.53264V25.7718H4.02142C3.22102 27.0991 2.8585 28.7287 2.70779 29.6313L2.70575 29.6231ZM36.5648 29.6231H35.3917C35.2431 28.7205 34.8806 27.091 34.0761 25.7718H36.5648V29.6231ZM36.5648 24.2831H1.53468V17.7321H11.4409V19.6721C11.442 20.2235 11.661 20.7519 12.0501 21.1416C12.4391 21.5313 12.9663 21.7504 13.5162 21.7509H35.9763C36.1761 21.7509 36.3749 21.7227 36.5669 21.6672L36.5648 24.2831ZM36.5648 19.668C36.5648 19.8251 36.5026 19.9757 36.3919 20.0868C36.2811 20.1978 36.1309 20.2602 35.9742 20.2602H13.5162C13.3596 20.2602 13.2094 20.1978 13.0986 20.0868C12.9878 19.9757 12.9256 19.8251 12.9256 19.668V15.735H31.9111C33.4284 15.735 34.6626 15.9739 35.5771 16.4456C35.8761 16.5998 36.1265 16.8341 36.3005 17.1226C36.4746 17.411 36.5654 17.7422 36.5628 18.0793L36.5648 19.668Z" fill="white"/>
	</symbol>
	<symbol id="about" viewBox="0 0 29 30" xmlns="http://www.w3.org/2000/svg">
		<path d="M14.5406 0.960023C11.7712 0.960023 9.06396 1.78344 6.76125 3.32617C4.45854 4.86891 2.6638 7.06167 1.60398 9.62714C0.544157 12.1926 0.266854 15.0156 0.807146 17.7391C1.34744 20.4625 2.68105 22.9643 4.63935 24.9278C6.59764 26.8914 9.09266 28.2285 11.8089 28.7702C14.5251 29.312 17.3406 29.034 19.8992 27.9713C22.4578 26.9087 24.6447 25.1091 26.1834 22.8003C27.722 20.4914 28.5432 17.7769 28.5432 15.0001C28.544 13.1561 28.1824 11.33 27.479 9.62624C26.7756 7.92246 25.7442 6.37439 24.4438 5.0705C23.1433 3.76661 21.5994 2.7324 19.9002 2.02711C18.2009 1.32182 16.3797 0.959216 14.5406 0.960023ZM14.5406 27.1674C12.1406 27.1674 9.79439 26.4539 7.7988 25.1169C5.80321 23.7799 4.24783 21.8797 3.32936 19.6563C2.41089 17.433 2.17058 14.9866 2.63881 12.6263C3.10704 10.2661 4.26279 8.09802 5.9599 6.39638C7.65701 4.69473 9.81927 3.53586 12.1732 3.06638C14.5272 2.5969 16.9671 2.8378 19.1845 3.75873C21.4019 4.67965 23.2971 6.23921 24.6305 8.24014C25.9639 10.2411 26.6757 12.5936 26.6757 15.0001C26.6724 18.2261 25.3929 21.319 23.1178 23.6002C20.8428 25.8813 17.7581 27.1642 14.5406 27.1674Z" fill="white"/>
		<path d="M14.5402 12.4656C14.2926 12.4656 14.0551 12.5643 13.8799 12.7398C13.7048 12.9154 13.6064 13.1536 13.6064 13.4019V21.2957C13.6064 21.544 13.7048 21.7822 13.8799 21.9578C14.0551 22.1333 14.2926 22.232 14.5402 22.232C14.7879 22.232 15.0254 22.1333 15.2005 21.9578C15.3756 21.7822 15.474 21.544 15.474 21.2957V13.4019C15.474 13.1536 15.3756 12.9154 15.2005 12.7398C15.0254 12.5643 14.7879 12.4656 14.5402 12.4656Z" fill="white"/>
		<path d="M14.5404 7.76788C14.171 7.76788 13.81 7.87774 13.5028 8.08349C13.1957 8.28924 12.9564 8.58171 12.815 8.92386C12.6737 9.26602 12.6367 9.64249 12.7087 10.0057C12.7808 10.3689 12.9587 10.7026 13.2198 10.9644C13.481 11.2263 13.8138 11.4047 14.1761 11.4769C14.5383 11.5492 14.9138 11.5121 15.2551 11.3704C15.5963 11.2286 15.888 10.9886 16.0932 10.6806C16.2984 10.3727 16.4079 10.0107 16.4079 9.6404C16.4074 9.14395 16.2105 8.66801 15.8604 8.31696C15.5102 7.96592 15.0355 7.76843 14.5404 7.76788Z" fill="white"/>
	</symbol>
	<symbol id="cabinets-and-dressers" viewBox="0 0 42 18" xmlns="http://www.w3.org/2000/svg">
		<path d="M0.753906 0.359997V15.9139H5.10143V17.8679H10.0274V15.9139H31.9096V17.8679H36.8356V15.9139H41.1831V0.359997H0.753906ZM8.72359 16.5606H6.40522V15.9139H8.72359V16.5606ZM20.3154 14.6066H2.0577V5.59602H20.3154V14.6066ZM35.5318 16.5606H33.2134V15.9139H35.5318V16.5606ZM39.8793 14.6066H21.6193V5.59602H39.8793V14.6066ZM39.8793 4.28183H2.0577V1.67419H39.8793V4.28183Z" fill="white"/>
	</symbol>
	<symbol id="arrow" viewBox="0 0 10 7" xmlns="http://www.w3.org/2000/svg">
		<path fill-rule="evenodd" clip-rule="evenodd" d="M1.175 0.998047L5 4.70655L8.825 0.998047L10 2.13975L5 6.99805L0 2.13975L1.175 0.998047Z"/>
	</symbol>
	<symbol id="" xmlns="http://www.w3.org/2000/svg">

	</symbol>
</svg>